<svg width="107" height="21" viewBox="0 0 107 21" fill="none" xmlns="http://www.w3.org/2000/svg">
<path d="M0.0195312 2.93207L0.0745478 19.519C0.083449 19.9469 0.397458 20.2983 0.794477 20.2882L5.10685 20.2947C5.50968 20.2974 5.83135 19.9512 5.82245 19.5234L5.88661 9.73082L3.56577 4.21086C3.56577 4.21086 2.30306 2.48433 1.03752 2.4866C0.678934 2.47928 0.340004 2.61731 0.0195312 2.93207Z" fill="url(#paint0_linear_606_76)"/>
<path d="M2.93894e-05 1.39966L0.0196891 3.31149C0.0196891 3.31149 0.372585 3.18776 0.900873 3.17883C1.87528 3.19067 2.77189 3.79848 3.1956 4.68101L5.88546 10.2607L9.95347 19.7892C10.0965 20.1124 10.4035 20.3133 10.7574 20.3154L14.2572 20.3319C14.6111 20.334 14.9101 20.1333 15.0579 19.8126L16.4823 16.5924C16.6583 16.1651 16.4366 15.707 15.9895 15.5604C15.1392 15.2959 13.8157 14.6381 12.7131 13.1025C12.6788 13.0592 12.6542 13.0013 12.6345 12.9676L7.31194 1.05274C7.15928 0.744129 6.85235 0.543201 6.51309 0.550662L0.875363 0.511931C0.380854 0.50123 -0.00387065 0.896281 2.93894e-05 1.39966Z" fill="url(#paint1_linear_606_76)"/>
<path d="M24.3686 0.516602L24.3562 0.529048L18.7968 0.541496C18.4603 0.541496 18.1486 0.740654 17.9991 1.05184L12.6641 13.0262L14.4216 16.2003C14.4216 16.2003 14.7956 17.0218 15.718 17.0965C16.0296 17.1214 16.3288 16.9471 16.4659 16.6608L21.3397 6.01833C21.6388 5.32128 22.1374 4.46241 22.8604 4.23836C23.7828 3.96452 24.1069 2.84426 25.129 3.65333V1.27589C25.129 0.85268 24.7925 0.516602 24.3686 0.516602Z" fill="url(#paint2_linear_606_76)"/>
<path d="M22.7887 3.71502C22.0852 4.19765 21.5621 4.88291 21.2092 5.6603L19.2031 10.1787L19.2704 19.5659C19.2799 19.9784 19.5951 20.3176 19.9899 20.3149L24.3644 20.3153C24.7592 20.3126 25.0921 19.9796 25.0825 19.5672L25.1467 3.25586C24.4073 3.28392 23.4922 3.23238 22.7887 3.71502Z" fill="url(#paint3_linear_606_76)"/>
<path d="M42.0411 0.494371L36.0134 0.514552C35.6643 0.507712 35.3503 0.708997 35.2114 1.03698L27.388 19.0511C27.1418 19.6326 27.5599 20.2661 28.192 20.2694L32.8003 20.3177C33.1707 20.3159 33.491 20.0997 33.6213 19.7505L38.9664 6.05002C38.9664 6.05002 40.7413 1.98411 43.5347 2.61908L42.8438 1.00916C42.7146 0.690957 42.3965 0.486303 42.0411 0.494371Z" fill="url(#paint4_linear_606_76)"/>
<path d="M39.075 5.80497C39.0039 5.95913 38.991 6.14215 39.0674 6.31377L44.31 19.7555C44.4427 20.0832 44.7629 20.3144 45.1249 20.3045L49.9025 20.3118C50.5193 20.3057 50.9466 19.6708 50.7082 19.0846L43.5357 2.6244C43.292 2.5648 43.0707 2.53862 42.8517 2.53027C40.8539 2.53114 39.4795 4.99164 39.075 5.80497Z" fill="url(#paint5_linear_606_76)"/>
<path d="M52.716 4.20485C50.8493 6.93584 50.654 9.64515 50.8493 11.5525C50.9361 12.3761 51.9563 12.7446 52.5423 12.1594C53.671 11.0106 55.2989 10.9239 56.3624 11.0323C56.9485 11.0973 57.4477 10.6638 57.4694 10.1003C57.6864 5.41862 61.5282 5.37527 61.5282 5.37527C64.5887 4.94178 65.7607 6.58904 66.1731 7.52105C66.3251 7.86784 66.6723 8.08458 67.063 8.04123L71.7079 7.54272C72.2506 7.4777 72.5978 6.95751 72.4459 6.43732C70.6227 -0.0216751 62.9028 0.0239131 62.9028 0.0239131C62.9028 0.0239131 62.3964 0 61.8538 0C59.7484 0 55.2772 0.476839 52.716 4.20485Z" fill="url(#paint6_linear_606_76)"/>
<path d="M53.2595 17.5664C56.9659 22.0019 63.8828 20.823 63.8828 20.823C63.8828 20.823 71.6178 20.2395 72.9019 13.612C72.9996 13.0674 72.5949 12.5881 72.0391 12.5599L67.3173 12.4742C66.9381 12.4751 66.6001 12.705 66.4835 13.0772C66.155 14.0386 65.1283 15.7788 62.0182 15.6361C62.0182 15.6361 57.5418 15.9611 57.429 10.14C57.429 10.14 52.6571 12.0506 51.1369 7.75879C51.1369 7.75879 49.375 12.8899 53.2595 17.5664Z" fill="url(#paint7_linear_606_76)"/>
<path d="M75.3594 8.90259L75.3768 19.4305C75.387 19.9269 75.7737 20.3125 76.256 20.3293L80.8654 20.3113C81.3207 20.3134 81.7068 19.9273 81.7237 19.4456L81.7629 2.18164C79.1461 7.94636 75.3594 8.90259 75.3594 8.90259Z" fill="url(#paint8_linear_606_76)"/>
<path d="M76.222 0.530057C75.7519 0.521086 75.35 0.909687 75.3477 1.40173L75.3544 8.88072C75.3544 8.88072 79.3518 8.37916 81.7564 2.19236L81.7692 1.40243C81.7782 0.932991 81.3744 0.523692 80.8963 0.529355L76.222 0.530057Z" fill="url(#paint9_linear_606_76)"/>
<path d="M85.6929 3.8005C85.6283 3.828 85.5608 3.84202 85.4961 3.86952L85.5136 19.4326C85.5174 19.924 85.907 20.3071 86.3884 20.3195L90.739 20.3157C91.231 20.3119 91.6147 19.9229 91.6109 19.4315L91.6166 9.31968L88.4286 4.76494C87.9637 4.0881 87.19 3.68636 86.4004 3.68164C86.1761 3.68607 85.9303 3.72307 85.6929 3.8005Z" fill="url(#paint10_linear_606_76)"/>
<path d="M101.147 0.515625C100.656 0.524496 100.265 0.907989 100.274 1.39818L100.275 11.5308L103.452 16.0992C104.07 16.9797 105.178 17.4019 106.185 17.0702C106.25 17.0438 106.329 17.0147 106.394 16.9883L106.367 1.39384C106.374 0.914632 105.974 0.512781 105.496 0.519074L101.147 0.515625Z" fill="url(#paint11_linear_606_76)"/>
<path d="M86.3836 0.515625C85.8963 0.523199 85.5248 0.918312 85.5078 1.39308L85.5103 3.89939C85.5103 3.89939 87.2652 3.14211 88.4362 4.79075L91.6135 9.3039C91.6017 9.32841 91.6262 9.3402 91.639 9.3765L100.492 19.9943C100.665 20.1984 100.911 20.3163 101.179 20.3243L105.504 20.3179C105.992 20.3103 106.388 19.927 106.38 19.4404L106.402 16.9459C106.402 16.9459 104.588 17.8258 103.215 15.7179C101.905 13.7308 100.448 11.7337 100.286 11.5051L91.3962 0.839203C91.2225 0.635069 90.9769 0.517218 90.7333 0.521006L86.3836 0.515625Z" fill="url(#paint12_linear_606_76)"/>
<path d="M35.0742 20.0391L38.8192 9.64453L42.8084 20.0391" fill="#D65A2B"/>
<defs>
<linearGradient id="paint0_linear_606_76" x1="-0.950643" y1="5.85461" x2="4.84466" y2="18.655" gradientUnits="userSpaceOnUse">
<stop stop-color="#0085CA"/>
<stop offset="0.03" stop-color="#0085CA"/>
<stop offset="1" stop-color="#282858"/>
</linearGradient>
<linearGradient id="paint1_linear_606_76" x1="-0.966355" y1="4.14507" x2="13.6373" y2="13.732" gradientUnits="userSpaceOnUse">
<stop stop-color="#0085CA"/>
<stop offset="0.01" stop-color="#0085CA"/>
<stop offset="0.96" stop-color="#282858"/>
<stop offset="1" stop-color="#282858"/>
</linearGradient>
<linearGradient id="paint2_linear_606_76" x1="12.6641" y1="8.80687" x2="25.129" y2="8.80687" gradientUnits="userSpaceOnUse">
<stop stop-color="#0085CA"/>
<stop offset="0.01" stop-color="#0085CA"/>
<stop offset="1" stop-color="#282858"/>
</linearGradient>
<linearGradient id="paint3_linear_606_76" x1="26.9651" y1="4.29078" x2="21.2856" y2="16.8354" gradientUnits="userSpaceOnUse">
<stop stop-color="#0085CA"/>
<stop offset="0.02" stop-color="#0085CA"/>
<stop offset="1" stop-color="#282858"/>
</linearGradient>
<linearGradient id="paint4_linear_606_76" x1="40.4516" y1="-0.932661" x2="34.1525" y2="13.9818" gradientUnits="userSpaceOnUse">
<stop stop-color="#0085CA"/>
<stop offset="0.02" stop-color="#0085CA"/>
<stop offset="1" stop-color="#282858"/>
</linearGradient>
<linearGradient id="paint5_linear_606_76" x1="46.1531" y1="22.5855" x2="43.8771" y2="4.73913" gradientUnits="userSpaceOnUse">
<stop stop-color="#0085CA"/>
<stop offset="0.02" stop-color="#0085CA"/>
<stop offset="1" stop-color="#282858"/>
</linearGradient>
<linearGradient id="paint6_linear_606_76" x1="50.7842" y1="6.22685" x2="72.4894" y2="6.22685" gradientUnits="userSpaceOnUse">
<stop stop-color="#0085CA"/>
<stop offset="0.02" stop-color="#0085CA"/>
<stop offset="1" stop-color="#282858"/>
</linearGradient>
<linearGradient id="paint7_linear_606_76" x1="56.6941" y1="23.0766" x2="60.8184" y2="13.4996" gradientUnits="userSpaceOnUse">
<stop stop-color="#0085CA"/>
<stop offset="0.02" stop-color="#0085CA"/>
<stop offset="1" stop-color="#282858"/>
</linearGradient>
<linearGradient id="paint8_linear_606_76" x1="73.73" y1="23.093" x2="88.4442" y2="-3.96754" gradientUnits="userSpaceOnUse">
<stop stop-color="#0085CA"/>
<stop offset="0.76" stop-color="#282858"/>
<stop offset="1" stop-color="#282858"/>
</linearGradient>
<linearGradient id="paint9_linear_606_76" x1="74.7812" y1="8.75878" x2="82.7436" y2="-5.88461" gradientUnits="userSpaceOnUse">
<stop stop-color="#0085CA"/>
<stop offset="0.76" stop-color="#282858"/>
<stop offset="1" stop-color="#282858"/>
</linearGradient>
<linearGradient id="paint10_linear_606_76" x1="85.583" y1="0.110961" x2="88.3834" y2="13.5912" gradientUnits="userSpaceOnUse">
<stop stop-color="#0085CA"/>
<stop offset="0.02" stop-color="#0085CA"/>
<stop offset="1" stop-color="#282858"/>
</linearGradient>
<linearGradient id="paint11_linear_606_76" x1="105.592" y1="18.3492" x2="103.017" y2="4.78431" gradientUnits="userSpaceOnUse">
<stop stop-color="#0085CA"/>
<stop offset="0.02" stop-color="#0085CA"/>
<stop offset="1" stop-color="#282858"/>
</linearGradient>
<linearGradient id="paint12_linear_606_76" x1="82.907" y1="4.15883" x2="107.446" y2="15.971" gradientUnits="userSpaceOnUse">
<stop stop-color="#0085CA"/>
<stop offset="0.02" stop-color="#0085CA"/>
<stop offset="1" stop-color="#282858"/>
</linearGradient>
</defs>
</svg>
